{
  "accessors": [
    {
      "bufferView": 2,
      "componentType": 5126,
      "count": 144,
      "max": [
        1.0,
        1.0,
        2.1855694143368964e-08
      ],
      "min": [
        -1.3732490539550781,
        -1.9488554000854492,
        -6.37583065032959
      ],
      "type": "VEC3"
    },
    {
      "bufferView": 2,
      "byteOffset": 1728,
      "componentType": 5126,
      "count": 144,
      "max": [
        0.05204935744404793,
        -0.3703182339668274,
        0.9237650036811829
      ],
      "min": [
        -0.37310147285461426,
        -0.9798603057861328,
        -0.41743144392967224
      ],
      "type": "VEC3"
    },
    {
      "bufferView": 1,
      "componentType": 5126,
      "count": 144,
      "max": [
        0.9533116817474365,
        0.97646564245224
      ],
      "min": [
        0.8271010518074036,
        0.42446714639663696
      ],
      "type": "VEC2"
    },
    {
      "bufferView": 0,
      "componentType": 5125,
      "count": 216,
      "type": "SCALAR"
    },
    {
      "bufferView": 2,
      "byteOffset": 3456,
      "componentType": 5126,
      "count": 42,
      "max": [
        4.874639511108398,
        5.0,
        0.75
      ],
      "min": [
        -4.874639511108398,
        -4.504844665527344,
        -0.75
      ],
      "type": "VEC3"
    },
    {
      "bufferView": 2,
      "byteOffset": 3960,
      "componentType": 5126,
      "count": 42,
      "max": [
        0.9749280214309692,
        0.9009689092636108,
        1.0
      ],
      "min": [
        -0.9749279618263245,
        -1.0,
        -1.0
      ],
      "type": "VEC3"
    },
    {
      "bufferView": 1,
      "byteOffset": 1152,
      "componentType": 5126,
      "count": 42,
      "max": [
        0.7638422250747681,
        0.8923732042312622
      ],
      "min": [
        0.11331677436828613,
        0.14226652681827545
      ],
      "type": "VEC2"
    },
    {
      "bufferView": 0,
      "byteOffset": 864,
      "componentType": 5125,
      "count": 72,
      "type": "SCALAR"
    }
  ],
  "asset": {
    "extras": {
      "author": "Jackj106 (https://sketchfab.com/Jackj106)",
      "license": "CC-BY-NC-SA-4.0 (http://creativecommons.org/licenses/by-nc-sa/4.0/)",
      "source": "https://sketchfab.com/3d-models/mysterious-film-reel-batim-inspired-model-b968ab624b644869b0a2f85e7014072d",
      "title": "Mysterious film-reel - batim inspired model"
    },
    "generator": "Sketchfab-12.66.0",
    "version": "2.0"
  },
  "bufferViews": [
    {
      "buffer": 0,
      "byteLength": 1152,
      "name": "floatBufferViews",
      "target": 34963
    },
    {
      "buffer": 0,
      "byteLength": 1488,
      "byteOffset": 1152,
      "byteStride": 8,
      "name": "floatBufferViews",
      "target": 34962
    },
    {
      "buffer": 0,
      "byteLength": 4464,
      "byteOffset": 2640,
      "byteStride": 12,
      "name": "floatBufferViews",
      "target": 34962
    }
  ],
  "buffers": [
    {
      "byteLength": 7104,
      "uri": "scene.bin"
    }
  ],
  "images": [
    {
      "uri": "textures/reel_baseColor.png"
    }
  ],
  "materials": [
    {
      "doubleSided": true,
      "name": "reel",
      "pbrMetallicRoughness": {
        "baseColorTexture": {
          "index": 0
        },
        "roughnessFactor": 0.6
      }
    }
  ],
  "meshes": [
    {
      "name": "Plane_reel_0",
      "primitives": [
        {
          "attributes": {
            "NORMAL": 1,
            "POSITION": 0,
            "TEXCOORD_0": 2
          },
          "indices": 3,
          "material": 0,
          "mode": 4
        }
      ]
    },
    {
      "name": "reel_reel_0",
      "primitives": [
        {
          "attributes": {
            "NORMAL": 5,
            "POSITION": 4,
            "TEXCOORD_0": 6
          },
          "indices": 7,
          "material": 0,
          "mode": 4
        }
      ]
    }
  ],
  "nodes": [
    {
      "children": [
        1
      ],
      "matrix": [
        1.0,
        0.0,
        0.0,
        0.0,
        0.0,
        2.220446049250313e-16,
        -1.0,
        0.0,
        0.0,
        1.0,
        2.220446049250313e-16,
        0.0,
        0.0,
        0.0,
        0.0,
        1.0
      ],
      "name": "Sketchfab_model"
    },
    {
      "children": [
        2
      ],
      "matrix": [
        1.0,
        0.0,
        0.0,
        0.0,
        0.0,
        0.0,
        1.0,
        0.0,
        0.0,
        -1.0,
        0.0,
        0.0,
        0.0,
        0.0,
        0.0,
        1.0
      ],
      "name": "102c8bf3fdce4e07b2a56c4379f70f20.fbx"
    },
    {
      "children": [
        3,
        5,
        7
      ],
      "name": "RootNode"
    },
    {
      "children": [
        4
      ],
      "matrix": [
        -2.8212996872056806e-05,
        -99.99999999999602,
        1.6653345369377348e-14,
        0.0,
        -1.6292067944734256e-05,
        4.5852210917018965e-12,
        -99.99999999999866,
        0.0,
        99.9999999999947,
        -2.8212996894261266e-05,
        -1.629206793918314e-05,
        0.0,
        216.94180297851563,
        25.0,
        550.4844970703125,
        1.0
      ],
      "name": "Plane"
    },
    {
      "mesh": 0,
      "name": "Plane_reel_0"
    },
    {
      "children": [
        6
      ],
      "matrix": [
        100.0,
        0.0,
        0.0,
        0.0,
        0.0,
        -1.629206793918314e-05,
        -99.99999999999868,
        0.0,
        0.0,
        99.99999999999868,
        -1.629206793918314e-05,
        0.0,
        0.0,
        0.0,
        0.0,
        1.0
      ],
      "name": "reel"
    },
    {
      "mesh": 1,
      "name": "reel_reel_0"
    },
    {
      "children": [
        8
      ],
      "matrix": [
        -68.08569268622486,
        73.24055153711768,
        0.4000774621978398,
        0.0,
        51.96598662686511,
        47.9221123650044,
        70.73194031250924,
        0.0,
        51.61273762680514,
        48.366235712681856,
        -70.6882773708051,
        0.0,
        407.6245422363281,
        590.38623046875,
        1422.285400390625,
        1.0
      ],
      "name": "Lamp"
    },
    {
      "children": [
        9
      ],
      "matrix": [
        1.0,
        0.0,
        0.0,
        0.0,
        0.0,
        2.220446049250313e-16,
        1.0,
        0.0,
        0.0,
        -1.0,
        2.220446049250313e-16,
        0.0,
        0.0,
        0.0,
        0.0,
        1.0
      ],
      "name": "Object_8"
    },
    {
      "name": "Object_9"
    }
  ],
  "samplers": [
    {
      "magFilter": 9729,
      "minFilter": 9987,
      "wrapS": 10497,
      "wrapT": 10497
    }
  ],
  "scene": 0,
  "scenes": [
    {
      "name": "Sketchfab_Scene",
      "nodes": [
        0
      ]
    }
  ],
  "textures": [
    {
      "sampler": 0,
      "source": 0
    }
  ]
}
